<?xml version="1.0" encoding="UTF-8"?>
<svg id="_レイヤー_2" data-name="レイヤー 2" xmlns="http://www.w3.org/2000/svg" viewBox="0 0 546.1 214.83">
  <defs>
    <style>
      .cls-1 {
        fill: #006837;
      }

      .cls-2 {
        fill: #ffe600;
      }

      .cls-3 {
        fill: #ffa018;
      }

      .cls-4 {
        fill: #ffe696;
      }

      .cls-5 {
        fill: #ceab07;
      }

      .cls-6 {
        fill: #bf1d25;
      }

      .cls-7 {
        fill: #dfb500;
      }

      .cls-8 {
        fill: #29abe2;
      }
    </style>
  </defs>
  <g id="text">
    <g>
      <path class="cls-4" d="m23.66,128.3L.06,11.03c-.31-1.52.61-3.03,2.19-3.6,10.1-3.6,46.79-14.67,81.92-.16,1.61.67,2.56,2.22,2.31,3.82l-18.59,117.2s-23.39,21.03-44.23,0Z"/>
      <path class="cls-2" d="m29.88,158.04l1.46,20.86s13.89,10.07,30.34,0l1.46-20.86s-16.45-11.51-33.26,0Z"/>
      <path class="cls-7" d="m23.66,128.3s14.99,6.78,44.23,0l-4.75,30.21c-4.75,5.86-25.95,8.94-33.26-.62l-6.21-29.59Z"/>
      <path class="cls-2" d="m31.34,179.04s-1.47,7.92-4.02,12.35c-3.66,6.34,3.15,14.16,5.51,17.67.49.73,1.14,1.35,1.92,1.83,3.55,2.17,14.3,7.54,24.48.25.86-.62,1.59-1.37,2.15-2.23,1.29-1.96,3.83-6.08,5.35-10.13,1.02-2.73.49-5.73-1.35-8.08s-3.67-6.88-3.7-11.66c-.07-12.24-27.05-9.68-30.34,0Z"/>
      <path class="cls-5" d="m29.4,155.61s15.28,9.95,34.2,0c0,0,1.06.8-.46,1.73-2.19,1.34-8.04,3.34-10.23,3.67,0,0-13.16,2.67-23.39-3.67,0,0-1.1-1-.11-1.73Z"/>
      <path class="cls-5" d="m24.28,130.2c-1.04-1.47,16.74,8.66,43.24-.57,0,0,1.95,1.93-.37,2.67-6.21,2-7.31,2.34-13.16,3.34-2.19,0-16.56,2.48-29.57-3.24,0,0-1.4-1.27-.14-2.2Z"/>
      <path class="cls-5" d="m24.68,132.07c-1.04-1.14,15.97,6.68,42.48-.44,0,0,1.79,1.61-.37,2.34-6.05,2.02-6.55,1.52-12.39,2.3-2.19,0-16.56,1.91-29.57-2.5,0,0-1.4-.98-.14-1.7Z"/>
      <path class="cls-5" d="m29.3,154.11s15.45,9.95,34.57,0c0,0,1.08.8-.46,1.73-2.22,1.34-8.13,3.34-10.35,3.67,0,0-13.3,2.67-23.65-3.67,0,0-1.11-1-.11-1.73Z"/>
    </g>
    <g>
      <path class="cls-4" d="m138.56,128.3L114.95,11.03c-.31-1.52.61-3.03,2.19-3.6,10.1-3.6,46.79-14.67,81.92-.16,1.61.67,2.56,2.22,2.31,3.82l-18.59,117.2s-23.39,21.03-44.23,0Z"/>
      <path class="cls-6" d="m144.77,158.04l1.46,20.86s13.89,10.07,30.34,0l1.46-20.86s-16.45-11.51-33.26,0Z"/>
      <path class="cls-7" d="m138.56,128.3s14.99,6.78,44.23,0l-4.75,30.21c-4.75,5.86-25.95,8.94-33.26-.62l-6.21-29.59Z"/>
      <path class="cls-6" d="m146.24,179.04s-1.47,7.92-4.02,12.35c-3.66,6.34,3.15,14.16,5.51,17.67.49.73,1.14,1.35,1.92,1.83,3.55,2.17,14.3,7.54,24.48.25.86-.62,1.59-1.37,2.15-2.23,1.29-1.96,3.83-6.08,5.35-10.13,1.02-2.73.49-5.73-1.35-8.08s-3.67-6.88-3.7-11.66c-.07-12.24-27.05-9.68-30.34,0Z"/>
      <path class="cls-5" d="m144.29,155.61s15.28,9.95,34.2,0c0,0,1.06.8-.46,1.73-2.19,1.34-8.04,3.34-10.23,3.67,0,0-13.16,2.67-23.39-3.67,0,0-1.1-1-.11-1.73Z"/>
      <path class="cls-5" d="m139.18,130.2c-1.04-1.47,16.74,8.66,43.24-.57,0,0,1.95,1.93-.37,2.67-6.21,2-7.31,2.34-13.16,3.34-2.19,0-16.56,2.48-29.57-3.24,0,0-1.4-1.27-.14-2.2Z"/>
      <path class="cls-5" d="m139.58,132.07c-1.04-1.14,15.97,6.68,42.48-.44,0,0,1.79,1.61-.37,2.34-6.05,2.02-6.55,1.52-12.39,2.3-2.19,0-16.56,1.91-29.57-2.5,0,0-1.4-.98-.14-1.7Z"/>
      <path class="cls-5" d="m144.19,154.11s15.45,9.95,34.57,0c0,0,1.08.8-.46,1.73-2.22,1.34-8.13,3.34-10.35,3.67,0,0-13.3,2.67-23.65-3.67,0,0-1.11-1-.11-1.73Z"/>
    </g>
    <g>
      <path class="cls-4" d="m253.46,128.3l-23.61-117.27c-.31-1.52.61-3.03,2.19-3.6,10.1-3.6,46.79-14.67,81.92-.16,1.61.67,2.56,2.22,2.31,3.82l-18.59,117.2s-23.39,21.03-44.23,0Z"/>
      <path class="cls-3" d="m259.67,158.04l1.46,20.86s13.89,10.07,30.34,0l1.46-20.86s-16.45-11.51-33.26,0Z"/>
      <path class="cls-7" d="m253.46,128.3s14.99,6.78,44.23,0l-4.75,30.21c-4.75,5.86-25.95,8.94-33.26-.62l-6.21-29.59Z"/>
      <path class="cls-3" d="m261.13,179.04s-1.47,7.92-4.02,12.35c-3.66,6.34,3.15,14.16,5.51,17.67.49.73,1.14,1.35,1.92,1.83,3.55,2.17,14.3,7.54,24.48.25.86-.62,1.59-1.37,2.15-2.23,1.29-1.96,3.83-6.08,5.35-10.13,1.02-2.73.49-5.73-1.35-8.08s-3.67-6.88-3.7-11.66c-.07-12.24-27.05-9.68-30.34,0Z"/>
      <path class="cls-5" d="m259.19,155.61s15.28,9.95,34.2,0c0,0,1.06.8-.46,1.73-2.19,1.34-8.04,3.34-10.23,3.67,0,0-13.16,2.67-23.39-3.67,0,0-1.1-1-.11-1.73Z"/>
      <path class="cls-5" d="m254.07,130.2c-1.04-1.47,16.74,8.66,43.24-.57,0,0,1.95,1.93-.37,2.67-6.21,2-7.31,2.34-13.16,3.34-2.19,0-16.56,2.48-29.57-3.24,0,0-1.4-1.27-.14-2.2Z"/>
      <path class="cls-5" d="m254.47,132.07c-1.04-1.14,15.97,6.68,42.48-.44,0,0,1.79,1.61-.37,2.34-6.05,2.02-6.55,1.52-12.39,2.3-2.19,0-16.56,1.91-29.57-2.5,0,0-1.4-.98-.14-1.7Z"/>
      <path class="cls-5" d="m259.09,154.11s15.45,9.95,34.57,0c0,0,1.08.8-.46,1.73-2.22,1.34-8.13,3.34-10.35,3.67,0,0-13.3,2.67-23.65-3.67,0,0-1.11-1-.11-1.73Z"/>
    </g>
    <g>
      <path class="cls-4" d="m368.35,128.3l-23.61-117.27c-.31-1.52.61-3.03,2.19-3.6,10.1-3.6,46.79-14.67,81.92-.16,1.61.67,2.56,2.22,2.31,3.82l-18.59,117.2s-23.39,21.03-44.23,0Z"/>
      <path class="cls-1" d="m374.56,158.04l1.46,20.86s13.89,10.07,30.34,0l1.46-20.86s-16.45-11.51-33.26,0Z"/>
      <path class="cls-7" d="m368.35,128.3s14.99,6.78,44.23,0l-4.75,30.21c-4.75,5.86-25.95,8.94-33.26-.62l-6.21-29.59Z"/>
      <path class="cls-1" d="m376.03,179.04s-1.47,7.92-4.02,12.35c-3.66,6.34,3.15,14.16,5.51,17.67.49.73,1.14,1.35,1.92,1.83,3.55,2.17,14.3,7.54,24.48.25.86-.62,1.59-1.37,2.15-2.23,1.29-1.96,3.83-6.08,5.35-10.13,1.02-2.73.49-5.73-1.35-8.08s-3.67-6.88-3.7-11.66c-.07-12.24-27.05-9.68-30.34,0Z"/>
      <path class="cls-5" d="m374.08,155.61s15.28,9.95,34.2,0c0,0,1.06.8-.46,1.73-2.19,1.34-8.04,3.34-10.23,3.67,0,0-13.16,2.67-23.39-3.67,0,0-1.1-1-.11-1.73Z"/>
      <path class="cls-5" d="m368.97,130.2c-1.04-1.47,16.74,8.66,43.24-.57,0,0,1.95,1.93-.37,2.67-6.21,2-7.31,2.34-13.16,3.34-2.19,0-16.56,2.48-29.57-3.24,0,0-1.4-1.27-.14-2.2Z"/>
      <path class="cls-5" d="m369.37,132.07c-1.04-1.14,15.97,6.68,42.48-.44,0,0,1.79,1.61-.37,2.34-6.05,2.02-6.55,1.52-12.39,2.3-2.19,0-16.56,1.91-29.57-2.5,0,0-1.4-.98-.14-1.7Z"/>
      <path class="cls-5" d="m373.98,154.11s15.45,9.95,34.57,0c0,0,1.08.8-.46,1.73-2.22,1.34-8.13,3.34-10.35,3.67,0,0-13.3,2.67-23.65-3.67,0,0-1.11-1-.11-1.73Z"/>
    </g>
    <g>
      <path class="cls-4" d="m483.25,128.3l-23.61-117.27c-.31-1.52.61-3.03,2.19-3.6,10.1-3.6,46.79-14.67,81.92-.16,1.61.67,2.56,2.22,2.31,3.82l-18.59,117.2s-23.39,21.03-44.23,0Z"/>
      <path class="cls-8" d="m489.46,158.04l1.46,20.86s13.89,10.07,30.34,0l1.46-20.86s-16.45-11.51-33.26,0Z"/>
      <path class="cls-7" d="m483.25,128.3s14.99,6.78,44.23,0l-4.75,30.21c-4.75,5.86-25.95,8.94-33.26-.62l-6.21-29.59Z"/>
      <path class="cls-8" d="m490.92,179.04s-1.47,7.92-4.02,12.35c-3.66,6.34,3.15,14.16,5.51,17.67.49.73,1.14,1.35,1.92,1.83,3.55,2.17,14.3,7.54,24.48.25.86-.62,1.59-1.37,2.15-2.23,1.29-1.96,3.83-6.08,5.35-10.13,1.02-2.73.49-5.73-1.35-8.08s-3.67-6.88-3.7-11.66c-.07-12.24-27.05-9.68-30.34,0Z"/>
      <path class="cls-5" d="m488.98,155.61s15.28,9.95,34.2,0c0,0,1.06.8-.46,1.73-2.19,1.34-8.04,3.34-10.23,3.67,0,0-13.16,2.67-23.39-3.67,0,0-1.1-1-.11-1.73Z"/>
      <path class="cls-5" d="m483.86,130.2c-1.04-1.47,16.74,8.66,43.24-.57,0,0,1.95,1.93-.37,2.67-6.21,2-7.31,2.34-13.16,3.34-2.19,0-16.56,2.48-29.57-3.24,0,0-1.4-1.27-.14-2.2Z"/>
      <path class="cls-5" d="m484.26,132.07c-1.04-1.14,15.97,6.68,42.48-.44,0,0,1.79,1.61-.37,2.34-6.05,2.02-6.55,1.52-12.39,2.3-2.19,0-16.56,1.91-29.57-2.5,0,0-1.4-.98-.14-1.7Z"/>
      <path class="cls-5" d="m488.88,154.11s15.45,9.95,34.57,0c0,0,1.08.8-.46,1.73-2.22,1.34-8.13,3.34-10.35,3.67,0,0-13.3,2.67-23.65-3.67,0,0-1.11-1-.11-1.73Z"/>
    </g>
  </g>
</svg>