<?xml version="1.0" encoding="UTF-8"?>
<svg id="_レイヤー_2" data-name="レイヤー 2" xmlns="http://www.w3.org/2000/svg" viewBox="0 0 1797.43 175.26">
  <defs>
    <style>
      .cls-1 {
        fill: #fff;
      }
    </style>
  </defs>
  <g id="text">
    <g>
      <path class="cls-1" d="m146.21,54.62l3.83,2.94c-6.75,6.52-12.66,11.27-17.72,14.25-5.06,2.98-8.79,4.46-11.18,4.46-1.98,0-2.96-1.36-2.96-4.08,0-6.78,5.8-17.23,17.41-31.35,9.8-12.22,14.7-19.03,14.7-20.42,0-1.2-.66-1.8-1.98-1.8-2.31,0-8.11,3.99-17.41,11.97-9.3,7.98-20.79,19.25-34.45,33.82-15.48,16.21-26.1,27.8-31.86,34.77,10.95.82,19.94,1.89,26.98,3.18,7.04,1.3,17.25,3.4,30.63,6.32,13.38,2.91,23.24,4.62,29.58,5.13-7.74,6.78-13.07,11.39-15.99,13.82-2.92,2.44-5.17,3.91-6.73,4.42-2.47.82-6.13.87-10.99.14-4.86-.73-12.56-2.14-23.09-4.23-10.54-2.09-20.4-3.83-29.58-5.22-9.18-1.39-17.56-2.09-25.13-2.09-4.28,0-7.97.38-11.05,1.14s-7.37,2.01-12.84,3.75-9.32,2.61-11.55,2.61c-3.21,0-4.82-1.01-4.82-3.04,0-1.14.54-2.44,1.61-3.89,2.72-3.36,5.35-6.56,7.9-9.59,2.55-3.04,5.27-5.41,8.15-7.12,2.88-1.71,7.04-3.04,12.47-3.99,5.43-.95,12.6-1.46,21.49-1.52,13.42-15.83,25.93-29.87,37.54-42.13,11.61-12.25,22.17-22.59,31.68-31.02,9.51-8.42,17.84-14.8,25.01-19.14,7.16-4.34,12.84-6.51,17.04-6.51,2.96,0,5.27.63,6.92,1.9,1.65,1.27,2.47,3.04,2.47,5.32,0,7.6-8.69,23.34-26.06,47.21Z"/>
      <path class="cls-1" d="m224.76,96.7v6.93c-7.99,7.92-15.44,13.89-22.35,17.91-6.92,4.02-12.8,6.03-17.66,6.03-6.75,0-11.77-2.72-15.07-8.17-3.29-5.45-4.94-11.4-4.94-17.86,0-2.47.33-4.83.99-7.08.66-2.25,1.44-4.1,2.35-5.56.9-1.46,2.59-3.74,5.06-6.84,11.69-13.99,22.39-20.99,32.11-20.99,5.02,0,7.53,1.49,7.53,4.47,0,2.03-1.63,5.19-4.88,9.5-3.25,4.31-6.16,7.38-8.71,9.21-7.16,5.32-11.84,9.03-14.02,11.11-2.18,2.09-3.27,4.46-3.27,7.12,0,2.28,1.11,4.18,3.33,5.7s5.1,2.28,8.64,2.28c3.87,0,8.13-1.09,12.78-3.28,4.65-2.18,10.68-5.68,18.09-10.5Zm-8.4-42.46c-2.06,0-4.01-.6-5.87-1.81-1.85-1.2-2.78-2.72-2.78-4.56,0-2.79,1.73-5.89,5.19-9.31,3.46-3.42,7.04-5.13,10.74-5.13,2.47,0,4.53.59,6.18,1.76,1.65,1.17,2.47,2.87,2.47,5.08,0,2.72-1.69,5.73-5.06,9.02-3.38,3.29-7,4.94-10.87,4.94Z"/>
      <path class="cls-1" d="m292.43,96.7v6.56c-4.94,3.8-8.69,6.56-11.24,8.26-2.55,1.71-6.05,3.45-10.5,5.23,0,5.76-.37,10.67-1.11,14.72-.74,4.05-2.39,8.31-4.94,12.78-2.55,4.46-6.5,9.36-11.86,14.68-5.27,5.26-10.46,9.29-15.56,12.11-5.11,2.82-9.1,4.23-11.98,4.23-3.21,0-6.17-2.03-8.89-6.08-2.72-4.05-4.08-9.09-4.08-15.1s1.28-11.84,3.83-18.24c2.55-6.4,6.5-14.66,11.86-24.79-4.04-4.05-6.05-8.07-6.05-12.06,0-3.23,1.07-5.7,3.21-7.41,2.14-1.71,5.19-3.26,9.14-4.65,2.88-3.48,5.62-6.44,8.21-8.88,2.59-2.44,6.11-5.68,10.56-9.74,8.56-16.21,18.6-32.04,30.13-47.5,3.21-4.31,5.51-7.2,6.92-8.69,1.4-1.49,2.88-2.23,4.45-2.23,1.4,0,2.63.79,3.71,2.37,1.07,1.58,1.61,3.64,1.61,6.18,0,3.1-.43,5.95-1.3,8.55-.86,2.6-2.1,5.21-3.7,7.84-1.61,2.63-3.83,5.78-6.67,9.45-2.84,3.67-4.59,5.95-5.25,6.84-4.12,5.57-8.77,11.75-13.95,18.52-5.19,6.78-9.28,12.13-12.29,16.05-3.01,3.93-5.17,6.87-6.48,8.83,4.45,2.98,7.96,5.54,10.56,7.69,2.59,2.15,4.84,4.72,6.73,7.69,2.8-.82,5.35-1.8,7.66-2.94,2.3-1.14,5.02-2.71,8.15-4.7,3.13-2,6.17-3.85,9.14-5.56Zm-36.92,25.46l-.25-2c-2.31.19-4.16.24-5.56.14-1.4-.1-3.03-.36-4.88-.81-1.85-.44-3.29-.86-4.32-1.23-1.03-.38-2.16-.76-3.4-1.14-6.26,11.78-9.38,21.56-9.38,29.35,0,3.86.76,7.16,2.28,9.88,1.52,2.72,3.31,4.09,5.37,4.09s4.84-1.46,8.09-4.37c3.25-2.91,6.07-7.22,8.46-12.92,2.39-5.7,3.58-12.7,3.58-20.99Z"/>
      <path class="cls-1" d="m311.94,100.12v2.37c0,3.74,1.19,6.65,3.58,8.74,2.39,2.09,5.51,3.13,9.39,3.13s8.21-.73,12.53-2.18,8.62-3.39,12.9-5.8c4.28-2.41,9.51-5.64,15.68-9.69v5.8c-9.3,8.61-18.03,15.22-26.18,19.81-8.15,4.59-16.42,6.89-24.82,6.89-7.33,0-13.13-2.18-17.41-6.56-4.28-4.37-6.42-10.35-6.42-17.95,0-6.65,2.02-12.68,6.05-18.1,4.03-5.41,10.62-11.13,19.76-17.15,6.26-4.12,12.47-7.22,18.65-9.31,6.17-2.09,11.69-3.13,16.55-3.13,3.87,0,6.93.68,9.2,2.04,2.26,1.36,3.4,3.41,3.4,6.13,0,3.99-1.94,7.96-5.8,11.92-3.87,3.96-9.78,7.88-17.72,11.78-7.95,3.89-17.72,7.65-29.33,11.26Zm1.24-6.17c7.41-2.22,13.75-4.97,19.02-8.26,5.27-3.29,9.16-6.44,11.67-9.45,2.51-3.01,3.77-5.21,3.77-6.6s-.86-2.18-2.59-2.18c-1.48,0-3.89.73-7.22,2.18-3.33,1.46-6.71,3.36-10.13,5.7-3.42,2.34-6.48,5.1-9.2,8.26-2.72,3.17-4.49,6.62-5.31,10.35Z"/>
      <path class="cls-1" d="m501.63,107.91c0,2.85,1.4,4.28,4.2,4.28,3.62,0,9.96-4.72,19.02-14.15-.33-1.77-.49-2.95-.49-3.52,0-3.42,1.77-7.6,5.31-12.54,3.54-4.94,7.61-9.25,12.23-12.92,4.61-3.67,8.11-5.51,10.5-5.51,2.88,0,4.32,2.66,4.32,7.98,0,4.37-1.22,8.68-3.64,12.92-2.43,4.24-5.95,8.58-10.56,13.01.74.57,1.56,1.16,2.47,1.76.9.6,1.87,1.11,2.9,1.52,1.03.41,2.12.62,3.27.62,2.72,0,6.17-1.68,10.37-5.03v6.74c-6.5,5.19-12.15,7.79-16.92,7.79-2.8,0-5-.27-6.61-.81-1.61-.54-3.64-1.5-6.11-2.9-15.15,14-26.67,20.99-34.58,20.99-3.05,0-5.46-.87-7.22-2.61-1.77-1.74-2.66-4.16-2.66-7.27,0-1.52.82-7.22,2.47-17.1-3.21,2.85-6.96,6.21-11.24,10.07-4.28,3.86-7.74,6.82-10.37,8.88-2.64,2.06-5.08,3.66-7.35,4.8-2.27,1.14-4.55,1.71-6.85,1.71s-4.88-1.08-7.96-3.23c-3.09-2.15-5.7-5.02-7.84-8.6-2.14-3.58-3.21-7.43-3.21-11.54s.74-7.41,2.22-10.26c1.48-2.85,4.86-7.12,10.13-12.82,4.77-5.07,9.02-9.21,12.72-12.44,3.71-3.23,7.06-5.73,10.06-7.51,3-1.77,5.45-2.66,7.35-2.66,1.15,0,2.66.21,4.51.62,1.85.41,3.5.97,4.94,1.66,1.44.7,2.16,1.43,2.16,2.19,0,2.41-1.38,5.45-4.14,9.12-2.76,3.67-6.85,7.79-12.29,12.35-5.43,4.56-11.65,9.21-18.65,13.96-1.89,4.37-2.84,7.92-2.84,10.64,0,.89.35,1.73,1.05,2.52.7.79,1.54,1.19,2.53,1.19,3.37,0,9.86-4.05,19.45-12.16,9.59-8.11,22.25-20.39,37.97-36.86.57-.63,1.81-.95,3.71-.95,2.06,0,3.93.35,5.62,1.05,1.69.7,2.53,1.65,2.53,2.85,0,.7-2.16,4.4-6.48,11.11-4.32,6.71-8.07,12.87-11.24,18.48-3.17,5.6-4.75,9.8-4.75,12.59Z"/>
      <path class="cls-1" d="m620.05,96.7v6.93c-7.99,7.92-15.44,13.89-22.35,17.91-6.92,4.02-12.8,6.03-17.66,6.03-6.75,0-11.77-2.72-15.07-8.17-3.29-5.45-4.94-11.4-4.94-17.86,0-2.47.33-4.83.99-7.08.66-2.25,1.44-4.1,2.35-5.56.9-1.46,2.59-3.74,5.06-6.84,11.69-13.99,22.39-20.99,32.11-20.99,5.02,0,7.53,1.49,7.53,4.47,0,2.03-1.63,5.19-4.88,9.5-3.25,4.31-6.16,7.38-8.71,9.21-7.16,5.32-11.84,9.03-14.02,11.11-2.18,2.09-3.27,4.46-3.27,7.12,0,2.28,1.11,4.18,3.33,5.7s5.1,2.28,8.64,2.28c3.87,0,8.13-1.09,12.78-3.28,4.65-2.18,10.68-5.68,18.09-10.5Zm-8.4-42.46c-2.06,0-4.01-.6-5.87-1.81-1.85-1.2-2.78-2.72-2.78-4.56,0-2.79,1.73-5.89,5.19-9.31,3.46-3.42,7.04-5.13,10.74-5.13,2.47,0,4.53.59,6.18,1.76,1.65,1.17,2.47,2.87,2.47,5.08,0,2.72-1.69,5.73-5.06,9.02-3.38,3.29-7,4.94-10.87,4.94Z"/>
      <path class="cls-1" d="m662.29,47.4h5.31c4.36-6.02,8.31-10.27,11.86-12.78,3.54-2.5,7.57-3.75,12.1-3.75s6.79.79,6.79,2.37c0,.76-1.77,2.82-5.31,6.17-3.54,3.36-6.22,6.17-8.03,8.45,2.8.25,5.29.48,7.47.66,2.18.19,3.89.35,5.13.48-4.69,6.71-10.58,13.58-17.66,20.61-2.31-.13-4.24-.24-5.8-.33-1.57-.1-3.15-.19-4.75-.29-1.61-.09-3.56-.2-5.87-.33-4.45,5.51-8.17,10.43-11.18,14.77-3.01,4.34-5.31,8.31-6.92,11.92s-2.41,7.03-2.41,10.26c0,4.37,2.26,6.56,6.79,6.56,3.13,0,7.22-1.28,12.29-3.85s11.83-6.51,20.31-11.83v6.36c-22.23,18.56-38.65,27.83-49.27,27.83-3.7,0-6.69-1.11-8.95-3.33-2.27-2.22-3.4-5.07-3.4-8.55,0-2.34.64-5.13,1.91-8.36,1.28-3.23,3.56-8.11,6.85-14.63-1.15.76-2.24,1.5-3.27,2.23-1.03.73-1.98,1.39-2.84,2-.86.6-1.79,1.23-2.78,1.9-.99.66-1.98,1.35-2.96,2.04v-6.56c8.64-5.57,19.1-15.36,31.37-29.35-1.24-.06-2.39-.11-3.46-.14-1.07-.03-2.35-.05-3.83-.05-4.86,0-8.48.25-10.87.76-.99.19-1.91.4-2.78.62-.86.22-1.46.33-1.79.33s-.49-.19-.49-.57c0-2.09,1.69-5.22,5.06-9.4,2.72-3.55,5.29-6.17,7.72-7.88,2.43-1.71,5.39-2.86,8.89-3.47,3.5-.6,8.42-.9,14.76-.9Z"/>
      <path class="cls-1" d="m774.54,96.7v5.99c-7.16,5.64-13.36,10.24-18.59,13.82-5.23,3.58-9.8,6.29-13.71,8.12-3.91,1.84-7.22,2.75-9.94,2.75-6.42,0-9.63-2.91-9.63-8.74,0-4.69,2-10.12,5.99-16.29,3.99-6.17,9.73-13.44,17.23-21.8-3.7,1.58-7.2,3.41-10.5,5.46-3.29,2.06-6.22,4.21-8.77,6.46-2.55,2.25-4.69,4.16-6.42,5.75-5.35,4.62-10.5,9.36-15.44,14.2s-8.27,8-10,9.45c-1.73,1.46-3.38,2.18-4.94,2.18-6.42,0-9.63-6.08-9.63-18.24,0-3.99.78-8.39,2.35-13.2,1.56-4.81,5.76-11.18,12.6-19.09,14.41-16.59,26.74-30.16,36.99-40.7s18.75-18.52,25.5-23.94c6.75-5.41,11.28-8.06,13.59-7.93,2.88.19,5.21.63,6.98,1.33,1.77.7,2.65,1.49,2.65,2.37,0,1.58-1.42,4.2-4.26,7.84-2.84,3.64-7.72,9.33-14.63,17.05-7.49,8.17-12.8,13.92-15.93,17.24-3.13,3.32-7.8,8.04-14.02,14.15-6.22,6.11-11.9,11.56-17.04,16.34-5.15,4.78-11.01,9.96-17.6,15.53v11.4c11.03-9.44,20.58-17.16,28.65-23.18,8.07-6.02,14.9-10.56,20.5-13.63,5.6-3.07,9.71-4.61,12.35-4.61,2.47,0,4.77,1.12,6.91,3.37,2.14,2.25,3.21,4.1,3.21,5.56,0,.63-.41,1.43-1.24,2.37-5.93,5.45-10.64,9.96-14.14,13.54-3.5,3.58-6.2,6.78-8.09,9.59-1.9,2.82-2.84,5.24-2.84,7.27,0,2.98,1.85,4.47,5.56,4.47,3.95,0,12.72-4.09,26.3-12.26Z"/>
      <path class="cls-1" d="m888.9,47.4h5.31c4.36-6.02,8.31-10.27,11.86-12.78,3.54-2.5,7.57-3.75,12.1-3.75s6.79.79,6.79,2.37c0,.76-1.77,2.82-5.31,6.17-3.54,3.36-6.22,6.17-8.03,8.45,2.8.25,5.29.48,7.47.66,2.18.19,3.89.35,5.12.48-4.69,6.71-10.58,13.58-17.66,20.61-2.31-.13-4.24-.24-5.8-.33-1.56-.1-3.15-.19-4.75-.29-1.6-.09-3.56-.2-5.87-.33-4.45,5.51-8.17,10.43-11.18,14.77-3.01,4.34-5.31,8.31-6.92,11.92-1.6,3.61-2.41,7.03-2.41,10.26,0,4.37,2.26,6.56,6.79,6.56,3.13,0,7.22-1.28,12.29-3.85,5.06-2.57,11.83-6.51,20.31-11.83v6.36c-22.23,18.56-38.65,27.83-49.27,27.83-3.7,0-6.69-1.11-8.95-3.33-2.27-2.22-3.4-5.07-3.4-8.55,0-2.34.64-5.13,1.91-8.36,1.28-3.23,3.56-8.11,6.85-14.63-1.15.76-2.24,1.5-3.27,2.23-1.03.73-1.97,1.39-2.84,2-.86.6-1.79,1.23-2.78,1.9s-1.98,1.35-2.96,2.04v-6.56c8.64-5.57,19.1-15.36,31.37-29.35-1.24-.06-2.39-.11-3.46-.14-1.07-.03-2.35-.05-3.83-.05-4.86,0-8.48.25-10.87.76-.99.19-1.91.4-2.78.62-.87.22-1.46.33-1.79.33s-.49-.19-.49-.57c0-2.09,1.69-5.22,5.06-9.4,2.72-3.55,5.29-6.17,7.72-7.88,2.43-1.71,5.39-2.86,8.89-3.47,3.5-.6,8.42-.9,14.76-.9Z"/>
      <path class="cls-1" d="m1001.15,96.7v5.99c-7.16,5.64-13.36,10.24-18.59,13.82-5.23,3.58-9.8,6.29-13.71,8.12-3.91,1.84-7.22,2.75-9.94,2.75-6.42,0-9.63-2.91-9.63-8.74,0-4.69,2-10.12,5.99-16.29,3.99-6.17,9.73-13.44,17.23-21.8-3.71,1.58-7.21,3.41-10.5,5.46-3.29,2.06-6.22,4.21-8.77,6.46-2.55,2.25-4.69,4.16-6.42,5.75-5.35,4.62-10.5,9.36-15.44,14.2-4.94,4.84-8.27,8-10,9.45-1.73,1.46-3.38,2.18-4.94,2.18-6.42,0-9.63-6.08-9.63-18.24,0-3.99.78-8.39,2.35-13.2,1.56-4.81,5.76-11.18,12.6-19.09,14.41-16.59,26.74-30.16,36.99-40.7,10.25-10.54,18.75-18.52,25.5-23.94,6.75-5.41,11.28-8.06,13.58-7.93,2.88.19,5.21.63,6.98,1.33,1.77.7,2.65,1.49,2.65,2.37,0,1.58-1.42,4.2-4.26,7.84-2.84,3.64-7.72,9.33-14.63,17.05-7.49,8.17-12.8,13.92-15.93,17.24-3.13,3.32-7.8,8.04-14.02,14.15-6.22,6.11-11.9,11.56-17.04,16.34-5.15,4.78-11.01,9.96-17.6,15.53v11.4c11.03-9.44,20.58-17.16,28.65-23.18,8.07-6.02,14.9-10.56,20.5-13.63,5.6-3.07,9.71-4.61,12.35-4.61,2.47,0,4.77,1.12,6.92,3.37,2.14,2.25,3.21,4.1,3.21,5.56,0,.63-.41,1.43-1.23,2.37-5.93,5.45-10.64,9.96-14.14,13.54-3.5,3.58-6.2,6.78-8.09,9.59-1.89,2.82-2.84,5.24-2.84,7.27,0,2.98,1.85,4.47,5.56,4.47,3.95,0,12.72-4.09,26.3-12.26Z"/>
      <path class="cls-1" d="m1020.91,100.12v2.37c0,3.74,1.19,6.65,3.58,8.74,2.39,2.09,5.51,3.13,9.38,3.13s8.21-.73,12.53-2.18,8.62-3.39,12.9-5.8c4.28-2.41,9.51-5.64,15.68-9.69v5.8c-9.3,8.61-18.03,15.22-26.18,19.81-8.15,4.59-16.42,6.89-24.82,6.89-7.33,0-13.13-2.18-17.41-6.56-4.28-4.37-6.42-10.35-6.42-17.95,0-6.65,2.02-12.68,6.05-18.1,4.03-5.41,10.62-11.13,19.76-17.15,6.26-4.12,12.47-7.22,18.65-9.31,6.17-2.09,11.69-3.13,16.55-3.13,3.87,0,6.94.68,9.2,2.04,2.26,1.36,3.4,3.41,3.4,6.13,0,3.99-1.94,7.96-5.8,11.92-3.87,3.96-9.78,7.88-17.72,11.78-7.95,3.89-17.72,7.65-29.33,11.26Zm1.23-6.17c7.41-2.22,13.75-4.97,19.02-8.26,5.27-3.29,9.16-6.44,11.67-9.45,2.51-3.01,3.77-5.21,3.77-6.6s-.86-2.18-2.59-2.18c-1.48,0-3.89.73-7.22,2.18-3.33,1.46-6.71,3.36-10.13,5.7-3.42,2.34-6.48,5.1-9.2,8.26-2.72,3.17-4.49,6.62-5.31,10.35Z"/>
      <path class="cls-1" d="m1213.56,62.41l-6.3,5.7c7.33.51,13.87,1.19,19.64,2.04,5.76.86,11.09,1.81,15.99,2.85,4.9,1.04,9.2,2.14,12.9,3.28,13.01,4.18,19.51,10.01,19.51,17.48,0,4.56-2.72,9.03-8.15,13.39-5.43,4.37-12.49,8.26-21.18,11.68-8.69,3.42-17.62,6.1-26.8,8.03-9.18,1.93-17.52,2.9-25.01,2.9-12.52,0-22.27-1.79-29.27-5.37-7-3.58-10.5-8.47-10.5-14.68,0-4.31,2.14-9.37,6.42-15.2,4.28-5.83,10.91-13.08,19.88-21.75-6.75-.25-11.53-1.03-14.33-2.33-2.8-1.3-4.2-3.12-4.2-5.46,0-1.46.53-2.56,1.61-3.32,1.07-.76,2.51-1.31,4.32-1.66,1.81-.35,5.29-.77,10.43-1.28,5.14-.51,11.75-1.14,19.82-1.9,8.97-8.49,17.02-14.87,24.14-19.14,7.12-4.27,14.76-6.73,22.91-7.36.66-.06,1.38-.1,2.16-.1s1.17.16,1.17.48c0,.38-.93,1.39-2.78,3.04-1.85,1.65-4.86,4.27-9.01,7.88-4.16,3.61-9.08,7.88-14.76,12.82,15.48-1.58,28.14-3.4,37.97-5.46,9.84-2.06,17.27-4.51,22.29-7.36,5.02-2.85,7.53-6.02,7.53-9.5,0-4.24-2.68-7.31-8.03-9.21-5.35-1.9-13.54-2.85-24.57-2.85-6.09,0-13.07.48-20.93,1.43-7.86.95-14.99,2.03-21.36,3.23-6.38,1.2-12.06,2.49-17.04,3.85-4.98,1.36-7.47,2.36-7.47,2.99,0,.19.25.38.74.57,4.03,1.14,6.05,2.09,6.05,2.85,0,1.01-6.17,2.96-18.52,5.84-12.35,2.88-20.67,4.32-24.95,4.32-3.05,0-4.57-1.17-4.57-3.51,0-2.79,3.31-7.8,9.94-15.06,6.63-7.25,12.66-11.89,18.09-13.92,1.89-.7,6.3-1.8,13.21-3.32,6.91-1.52,14.51-2.98,22.78-4.37,8.27-1.39,16.69-2.56,25.25-3.51,8.56-.95,16.13-1.42,22.72-1.42,15.56,0,27.25,2.14,35.07,6.41,7.82,4.27,11.73,9.64,11.73,16.1,0,4.37-1.79,8.58-5.37,12.63-3.58,4.05-9.16,7.88-16.73,11.49-7.58,3.61-17.43,6.78-29.58,9.5-12.15,2.72-26.45,4.81-42.91,6.27Zm-13.09,12.25c-4.28,3.93-8.09,7.39-11.42,10.4-3.33,3.01-5.72,5.45-7.16,7.31-1.44,1.87-2.16,3.75-2.16,5.65,0,3.04,2.04,5.75,6.11,8.12,4.07,2.37,9.94,3.56,17.6,3.56,7.08,0,14.63-.97,22.66-2.9,8.03-1.93,14.78-4.45,20.25-7.55,5.47-3.1,8.21-6.24,8.21-9.4,0-2.72-2.02-4.97-6.05-6.74-4.03-1.77-10.17-3.34-18.4-4.7-8.23-1.36-18.11-2.61-29.64-3.75Z"/>
      <path class="cls-1" d="m1300,79.7c12.51-8.74,24.66-15.23,36.43-19.47,11.77-4.24,20.87-6.36,27.29-6.36,1.73,0,3.33.55,4.82,1.66,1.48,1.11,2.66,2.39,3.52,3.85.86,1.46,1.3,2.53,1.3,3.23,0,1.14-.58,1.98-1.73,2.52-1.15.54-3.17,1.19-6.05,1.95.58,1.01,1.32,2.31,2.22,3.89.9,1.58,1.6,2.87,2.1,3.85.49.98.74,1.85.74,2.61,0,1.52-2,4.35-5.99,8.5-3.99,4.15-6.79,7.2-8.4,9.17-1.61,1.96-2.41,4.37-2.41,7.22,0,4.69,2.8,7.03,8.4,7.03s14.78-4.15,27.05-12.44v5.8c-20.83,17.8-35.73,26.69-44.7,26.69-3.21,0-5.49-.81-6.85-2.42s-2.04-4-2.04-7.17c0-5,2.35-12.26,7.04-21.75-12.02,10.26-20.95,17.56-26.8,21.9-5.85,4.34-10.66,6.51-14.45,6.51-1.81,0-4.08-1.2-6.79-3.61-2.72-2.41-5.13-5.52-7.22-9.36-2.1-3.83-3.15-7.8-3.15-11.92,0-2.98.37-5.46,1.11-7.46.74-1.99,2.18-4.04,4.32-6.13,2.14-2.09,5.56-4.84,10.25-8.26Zm59.15-10.45c-21.41,7.54-36.66,13.93-45.75,19.19-9.1,5.26-13.65,10.67-13.65,16.24,0,2.03.45,3.69,1.36,4.99.91,1.3,2.14,1.95,3.71,1.95.9,0,2.51-.44,4.82-1.33,8.64-3.93,16.55-9.04,23.71-15.34,7.16-6.3,15.76-14.87,25.81-25.7Z"/>
      <path class="cls-1" d="m1387.68,99.36v-2.28c21.24-17.22,35.85-29.29,43.84-36.19,1.81-7.79,6.17-11.68,13.09-11.68,1.73,0,3.58.38,5.56,1.14l.74,1.8c-.33.76-.49,1.84-.49,3.23,0,1.2.6,3.44,1.79,6.7,1.19,3.26,2.12,6,2.78,8.22.66,2.22.99,4.72.99,7.5,0,4.18-1.23,8.19-3.7,12.02-2.47,3.83-6.05,7.51-10.74,11.02-4.69,3.51-10.74,7.11-18.15,10.78,2.96.38,5.31.57,7.04.57,3.38,0,7.02-.65,10.93-1.95,3.91-1.3,7.9-3.04,11.98-5.23,4.07-2.18,8.83-5.02,14.26-8.5v6.36c-10.54,7.92-19.97,13.92-28.28,18-8.32,4.09-15.48,6.13-21.49,6.13-7.74,0-14.9-2.53-21.49-7.6-3.87-3.04-6.28-5.95-7.22-8.74-.95-2.79-1.42-6.55-1.42-11.3Zm46.06-14.53l-2.22-13.87c-5.11,4.43-16.01,12.95-32.72,25.55,4.94.82,8.31,1.93,10.13,3.32,1.81,1.39,4.36,4.09,7.66,8.07,5.6-1.77,9.9-4.2,12.9-7.27,3.01-3.07,4.51-7.27,4.51-12.59,0-.63-.02-1.2-.06-1.71-.04-.51-.1-1.01-.18-1.52Z"/>
      <path class="cls-1" d="m1466.59,99.36v-2.28c21.24-17.22,35.85-29.29,43.84-36.19,1.81-7.79,6.17-11.68,13.09-11.68,1.73,0,3.58.38,5.56,1.14l.74,1.8c-.33.76-.49,1.84-.49,3.23,0,1.2.6,3.44,1.79,6.7,1.19,3.26,2.12,6,2.78,8.22.66,2.22.99,4.72.99,7.5,0,4.18-1.23,8.19-3.7,12.02-2.47,3.83-6.05,7.51-10.74,11.02-4.69,3.51-10.74,7.11-18.15,10.78,2.96.38,5.31.57,7.04.57,3.38,0,7.02-.65,10.93-1.95,3.91-1.3,7.9-3.04,11.98-5.23,4.07-2.18,8.83-5.02,14.26-8.5v6.36c-10.54,7.92-19.97,13.92-28.28,18-8.32,4.09-15.48,6.13-21.49,6.13-7.74,0-14.9-2.53-21.49-7.6-3.87-3.04-6.28-5.95-7.22-8.74-.95-2.79-1.42-6.55-1.42-11.3Zm46.06-14.53l-2.22-13.87c-5.11,4.43-16.01,12.95-32.72,25.55,4.94.82,8.31,1.93,10.13,3.32,1.81,1.39,4.36,4.09,7.66,8.07,5.6-1.77,9.9-4.2,12.9-7.27,3.01-3.07,4.51-7.27,4.51-12.59,0-.63-.02-1.2-.06-1.71-.04-.51-.1-1.01-.18-1.52Z"/>
      <path class="cls-1" d="m1625.4,96.51v6.36c-5.43,3.8-9.8,6.33-13.09,7.6-3.29,1.27-8.03,1.77-14.2,1.52-10.7,9.75-20.13,14.63-28.28,14.63-4.61,0-8.81-1.17-12.6-3.51-3.79-2.34-6.81-5.54-9.08-9.59-2.26-4.05-3.4-8.58-3.4-13.58,0-4.05,1.75-8.55,5.25-13.49,3.5-4.94,8.03-9.55,13.58-13.82,5.56-4.28,11.5-7.73,17.85-10.35,6.34-2.63,12.23-3.94,17.66-3.94,3.87,0,6.91.46,9.14,1.38,2.22.92,3.33,2.2,3.33,3.85,0,1.27-.95,2.72-2.84,4.37,3.13.51,5.27,1.35,6.42,2.52,1.15,1.17,1.73,3.31,1.73,6.41s-.93,6.87-2.78,11.49c-1.85,4.62-4.38,8.96-7.59,13.01l2.22,1.71h1.85c1.4,0,2.78-.27,4.14-.81,1.36-.54,2.57-1.11,3.64-1.71,1.07-.6,3.42-1.95,7.04-4.04Zm-25.44-24.98c-6.83,3.17-12.68,6.03-17.54,8.6-4.86,2.57-8.97,5.16-12.35,7.79-3.38,2.63-5.64,5.27-6.79,7.93-2.06,7.09-3.09,10.92-3.09,11.49,0,4.18,3.79,6.27,11.36,6.27,3.54,0,9.47-2.34,17.78-7.03-1.4-2.98-2.1-5.83-2.1-8.55,0-3.99,1.07-8.06,3.21-12.21,2.14-4.15,5.31-8.91,9.51-14.3Z"/>
      <path class="cls-1" d="m1704.56,96.51v6.36c-5.43,3.8-9.8,6.33-13.09,7.6-3.29,1.27-8.03,1.77-14.2,1.52-10.7,9.75-20.13,14.63-28.28,14.63-4.61,0-8.81-1.17-12.6-3.51-3.79-2.34-6.81-5.54-9.08-9.59-2.26-4.05-3.4-8.58-3.4-13.58,0-4.05,1.75-8.55,5.25-13.49,3.5-4.94,8.03-9.55,13.58-13.82,5.56-4.28,11.5-7.73,17.85-10.35,6.34-2.63,12.23-3.94,17.66-3.94,3.87,0,6.91.46,9.14,1.38,2.22.92,3.33,2.2,3.33,3.85,0,1.27-.95,2.72-2.84,4.37,3.13.51,5.27,1.35,6.42,2.52,1.15,1.17,1.73,3.31,1.73,6.41s-.93,6.87-2.78,11.49c-1.85,4.62-4.38,8.96-7.59,13.01l2.22,1.71h1.85c1.4,0,2.78-.27,4.14-.81,1.36-.54,2.57-1.11,3.64-1.71,1.07-.6,3.42-1.95,7.04-4.04Zm-25.44-24.98c-6.83,3.17-12.68,6.03-17.54,8.6-4.86,2.57-8.97,5.16-12.35,7.79-3.38,2.63-5.64,5.27-6.79,7.93-2.06,7.09-3.09,10.92-3.09,11.49,0,4.18,3.79,6.27,11.36,6.27,3.54,0,9.47-2.34,17.78-7.03-1.4-2.98-2.1-5.83-2.1-8.55,0-3.99,1.07-8.06,3.21-12.21,2.14-4.15,5.31-8.91,9.51-14.3Z"/>
      <path class="cls-1" d="m1787.55,79.51c-14.49,12.41-21.74,21.06-21.74,25.93,0,2.72,1.44,4.09,4.32,4.09,2.39,0,5.5-.97,9.32-2.9,3.83-1.93,9.82-5.37,17.97-10.31v6.55c-11.69,8.87-20.67,15.26-26.92,19.19-6.26,3.93-11.36,5.89-15.31,5.89-6.75,0-10.13-3.42-10.13-10.26,0-2.03.41-4.02,1.23-5.98.82-1.96,1.95-4,3.4-6.13,1.44-2.12,3.64-5.16,6.61-9.12,2.96-3.96,6.38-8.44,10.25-13.44-4.69,1.84-10.58,5.48-17.66,10.92-4.61,3.42-8.52,6.67-11.73,9.74-3.21,3.07-6.65,6.49-10.31,10.26-3.66,3.77-6.34,6.3-8.03,7.6-1.69,1.3-3.4,1.95-5.13,1.95-2.64,0-5.06-2.12-7.29-6.36-2.22-4.24-3.33-9.18-3.33-14.82,0-3.48.51-6.21,1.54-8.17,1.03-1.96,3.07-4.75,6.11-8.36,5.68-6.71,10.58-11.64,14.7-14.77,4.12-3.13,8.07-4.7,11.86-4.7,2.63,0,4.75.35,6.36,1.05,1.6.7,2.41,1.77,2.41,3.23,0,.63-.25,1.3-.74,1.99-.49.7-1.05,1.33-1.67,1.9-.62.57-1.91,1.68-3.89,3.32-13.01,11.08-19.51,18.27-19.51,21.56,0,1.84.78,2.75,2.35,2.75.99,0,2.9-1.22,5.74-3.66s6.5-5.64,10.99-9.59c4.49-3.96,9.8-8.09,15.93-12.4,6.13-4.31,13.11-8.45,20.93-12.44,4.36-2.34,7.99-3.51,10.87-3.51,1.32,0,2.61,1.39,3.89,4.18,1.27,2.79,1.91,5.61,1.91,8.45,0,1.39-1.77,3.51-5.31,6.36Z"/>
    </g>
  </g>
</svg>